<?xml version="1.0" encoding="UTF-8"?>
<!DOCTYPE svg PUBLIC "-//W3C//DTD SVG 1.1//EN" "http://www.w3.org/Graphics/SVG/1.1/DTD/svg11.dtd">
<svg xmlns="http://www.w3.org/2000/svg" version="1.1" width="3508px" height="2480px" style="shape-rendering:geometricPrecision; text-rendering:geometricPrecision; image-rendering:optimizeQuality; fill-rule:evenodd; clip-rule:evenodd" xmlns:xlink="http://www.w3.org/1999/xlink">
<g><path style="opacity:0.995" fill="#fe0d00" d="M 2881.5,1148.5 C 2881.5,1148.17 2881.5,1147.83 2881.5,1147.5C 2934.85,1044.4 2943.02,937.73 2906,827.5C 2860.26,708.756 2778.09,626.256 2659.5,580C 2567.58,547.05 2474.58,543.716 2380.5,570C 2370.22,572.815 2360.22,576.315 2350.5,580.5C 2349.83,580.5 2349.5,580.167 2349.5,579.5C 2338.13,488.138 2349.63,399.805 2384,314.5C 2395.73,286.149 2410.73,259.816 2429,235.5C 2434.33,229.84 2440.49,225.34 2447.5,222C 2455.7,219.32 2463.37,220.32 2470.5,225C 2478.14,232.438 2483.64,241.271 2487,251.5C 2496.66,282.432 2502.32,314.098 2504,346.5C 2505.4,367.83 2506.73,389.164 2508,410.5C 2509.29,425.974 2512.62,440.974 2518,455.5C 2526.93,474.817 2539.76,477.984 2556.5,465C 2571.31,450.205 2583.81,433.705 2594,415.5C 2600.92,402.656 2607.59,389.656 2614,376.5C 2636.42,324.25 2659.42,272.25 2683,220.5C 2696.64,191.207 2712.31,163.207 2730,136.5C 2740.02,122.481 2752.52,111.314 2767.5,103C 2800.28,92.3005 2819.78,103.801 2826,137.5C 2828.99,164.449 2829.32,191.449 2827,218.5C 2820.27,281.549 2810.94,344.215 2799,406.5C 2796.51,422.753 2795.51,439.087 2796,455.5C 2796.05,465.251 2799.22,473.751 2805.5,481C 2807.77,482.552 2810.27,483.385 2813,483.5C 2818.9,482.867 2824.4,481.034 2829.5,478C 2838.07,472.769 2846.07,466.769 2853.5,460C 2887.73,425.104 2921.23,389.604 2954,353.5C 2987.29,318.877 3021.79,285.71 3057.5,254C 3082.71,231.809 3110.38,213.143 3140.5,198C 3153.6,191.822 3167.27,189.822 3181.5,192C 3196.17,197.006 3204.67,207.173 3207,222.5C 3208.24,236.842 3206.57,250.842 3202,264.5C 3195.38,283.418 3187.38,301.751 3178,319.5C 3169.59,334.663 3160.92,349.663 3152,364.5C 3123.83,408.176 3095.16,451.51 3066,494.5C 3048.27,521.949 3032.61,550.615 3019,580.5C 3012.99,593.549 3010.32,607.215 3011,621.5C 3013.76,629.813 3019.6,634.146 3028.5,634.5C 3039.51,632.999 3050.17,630.166 3060.5,626C 3094.12,609.192 3127.45,591.859 3160.5,574C 3207.08,549.043 3255.08,527.376 3304.5,509C 3327.94,500.379 3352.1,495.213 3377,493.5C 3393.72,492.734 3407.72,498.4 3419,510.5C 3424.69,520.568 3426.03,531.235 3423,542.5C 3420.83,549.848 3417.83,556.848 3414,563.5C 3402.86,580.651 3390.19,596.651 3376,611.5C 3341.13,645.815 3304.29,677.648 3265.5,707C 3212.01,746.911 3158.34,786.577 3104.5,826C 3076.56,846.596 3050.39,869.429 3026,894.5C 3017.32,903.854 3010.65,914.52 3006,926.5C 3001.83,942.001 3006.67,953.835 3020.5,962C 3033.12,968.653 3046.46,973.319 3060.5,976C 3075.35,979.265 3090.35,981.598 3105.5,983C 3140.2,984.859 3174.87,987.192 3209.5,990C 3246.34,992.661 3275.84,1008.49 3298,1037.5C 3309.01,1055.41 3307.35,1072.07 3293,1087.5C 3280.1,1099.04 3265.6,1108.21 3249.5,1115C 3174.61,1146.68 3096.44,1161.85 3015,1160.5C 2970.1,1160.74 2925.6,1156.74 2881.5,1148.5 Z"/></g>
<g><path style="opacity:1" fill="#fefefe" d="M 2881.5,1147.5 C 2819.99,1136.88 2761.32,1117.88 2705.5,1090.5C 2757.56,1013.92 2767.06,932.25 2734,845.5C 2696.33,763.836 2633.83,712.002 2546.5,690C 2488.62,676.766 2431.96,680.599 2376.5,701.5C 2364.2,661.949 2355.53,621.615 2350.5,580.5C 2360.22,576.315 2370.22,572.815 2380.5,570C 2474.58,543.716 2567.58,547.05 2659.5,580C 2778.09,626.256 2860.26,708.756 2906,827.5C 2943.02,937.73 2934.85,1044.4 2881.5,1147.5 Z"/></g>
<g><path style="opacity:0.993" fill="#4c4c4c" d="M 2349.5,579.5 C 2349.5,580.167 2349.83,580.5 2350.5,580.5C 2355.53,621.615 2364.2,661.949 2376.5,701.5C 2376.5,701.833 2376.5,702.167 2376.5,702.5C 2283.55,741.296 2228.05,810.296 2210,909.5C 2201.18,1016.34 2241.01,1099.51 2329.5,1159C 2400.44,1201.9 2476.11,1212.9 2556.5,1192C 2617.26,1174.67 2666.26,1140.84 2703.5,1090.5C 2704.17,1090.5 2704.83,1090.5 2705.5,1090.5C 2761.32,1117.88 2819.99,1136.88 2881.5,1147.5C 2881.5,1147.83 2881.5,1148.17 2881.5,1148.5C 2841.3,1223.2 2783.63,1280.37 2708.5,1320C 2595.33,1376.46 2478.66,1384.8 2358.5,1345C 2241.67,1302.17 2158.5,1223.67 2109,1109.5C 2079.26,1033.84 2072.59,956.176 2089,876.5C 2119.72,751.469 2191.89,658.969 2305.5,599C 2319.9,591.813 2334.57,585.313 2349.5,579.5 Z"/></g>
<g><path style="opacity:0.997" fill="#fe0d00" d="M 2705.5,1090.5 C 2704.83,1090.5 2704.17,1090.5 2703.5,1090.5C 2656.44,1067.98 2613.44,1039.48 2574.5,1005C 2481.59,922.068 2415.59,821.235 2376.5,702.5C 2376.5,702.167 2376.5,701.833 2376.5,701.5C 2431.96,680.599 2488.62,676.766 2546.5,690C 2633.83,712.002 2696.33,763.836 2734,845.5C 2767.06,932.25 2757.56,1013.92 2705.5,1090.5 Z"/></g>
<g><path style="opacity:0.986" fill="#000000" d="M 729.5,938.5 C 747.621,938.147 759.454,946.481 765,963.5C 765.667,1090.5 765.667,1217.5 765,1344.5C 758.071,1364.39 744.238,1371.89 723.5,1367C 711.721,1362.89 704.554,1354.72 702,1342.5C 701.333,1216.83 701.333,1091.17 702,965.5C 705.093,950.24 714.26,941.24 729.5,938.5 Z"/></g>
<g><path style="opacity:0.984" fill="#000000" d="M 853.5,938.5 C 870.853,938.248 882.353,946.248 888,962.5C 888.333,1044.5 888.667,1126.5 889,1208.5C 938.167,1160 987.333,1111.5 1036.5,1063C 1053.21,1053.01 1068.05,1055.18 1081,1069.5C 1087.28,1081.4 1086.94,1093.07 1080,1104.5C 1048.17,1135 1016.33,1165.5 984.5,1196C 1019.45,1238.74 1054.29,1281.57 1089,1324.5C 1095.49,1340.4 1091.99,1353.57 1078.5,1364C 1064.85,1370.74 1051.85,1369.74 1039.5,1361C 1006,1320.17 972.5,1279.33 939,1238.5C 922.333,1254.5 905.667,1270.5 889,1286.5C 888.667,1306.17 888.333,1325.83 888,1345.5C 881.715,1363.07 869.215,1370.57 850.5,1368C 835.31,1364.48 826.81,1354.98 825,1339.5C 824.333,1215.5 824.333,1091.5 825,967.5C 827.679,950.988 837.179,941.322 853.5,938.5 Z"/></g>
<g><path style="opacity:0.991" fill="#000000" d="M 107.5,958.5 C 206.224,958.007 304.89,958.507 403.5,960C 420.531,967.564 426.698,980.397 422,998.5C 416.899,1009.98 408.066,1016.48 395.5,1018C 359.168,1018.5 322.835,1018.67 286.5,1018.5C 286.667,1126.83 286.5,1235.17 286,1343.5C 278.957,1363.94 264.79,1371.78 243.5,1367C 232.573,1363.07 225.406,1355.57 222,1344.5C 221.5,1235.83 221.333,1127.17 221.5,1018.5C 185.165,1018.67 148.832,1018.5 112.5,1018C 91.2769,1014.4 82.1103,1001.9 85,980.5C 89.1086,969.557 96.6086,962.223 107.5,958.5 Z"/></g>
<g><path style="opacity:0.982" fill="#000000" d="M 503.5,1053.5 C 563.544,1049.77 609.378,1073.1 641,1123.5C 657.915,1153.41 664.582,1185.41 661,1219.5C 655.959,1230.44 647.459,1236.6 635.5,1238C 567.167,1238.5 498.834,1238.67 430.5,1238.5C 439.425,1282.59 466.092,1308.09 510.5,1315C 545.587,1318.19 575.92,1307.86 601.5,1284C 617.503,1273.93 632.003,1275.76 645,1289.5C 651.267,1300.74 650.934,1311.74 644,1322.5C 601.707,1363.71 551.207,1379.54 492.5,1370C 431.353,1357.52 390.853,1321.69 371,1262.5C 356.068,1207.42 365.068,1156.75 398,1110.5C 425.432,1077.2 460.599,1058.2 503.5,1053.5 Z M 502.5,1109.5 C 546.492,1105.74 576.325,1124.4 592,1165.5C 594.147,1172.09 595.98,1178.76 597.5,1185.5C 541.837,1186.5 486.171,1186.83 430.5,1186.5C 438.447,1145.47 462.447,1119.8 502.5,1109.5 Z"/></g>
<g><path style="opacity:0.985" fill="#000000" d="M 1247.5,1053.5 C 1301.15,1050.76 1346.65,1068.43 1384,1106.5C 1422.42,1152.95 1433.09,1205.29 1416,1263.5C 1390.03,1329.6 1341.53,1365.76 1270.5,1372C 1204.16,1374.75 1152.99,1348.58 1117,1293.5C 1095.07,1252.76 1090.41,1210.09 1103,1165.5C 1123.67,1107.17 1164.17,1071 1224.5,1057C 1232.3,1055.77 1239.97,1054.6 1247.5,1053.5 Z M 1250.5,1110.5 C 1297.6,1109.45 1331.1,1130.12 1351,1172.5C 1365.01,1210.42 1360.34,1245.75 1337,1278.5C 1308.11,1310.61 1272.61,1321.11 1230.5,1310C 1190.95,1295.39 1168.11,1267.23 1162,1225.5C 1157.64,1180.39 1174.47,1145.89 1212.5,1122C 1224.63,1115.97 1237.3,1112.14 1250.5,1110.5 Z"/></g>
<g><path style="opacity:0.985" fill="#000000" d="M 1597.5,1053.5 C 1630.8,1050.74 1660.47,1059.57 1686.5,1080C 1693.76,1086.42 1700.1,1093.59 1705.5,1101.5C 1735.71,1065.58 1774.37,1049.75 1821.5,1054C 1884.16,1060.99 1919.32,1095.82 1927,1158.5C 1928.61,1218.82 1928.94,1279.15 1928,1339.5C 1925.27,1357.89 1914.61,1367.56 1896,1368.5C 1880.54,1367.7 1870.21,1360.03 1865,1345.5C 1864.67,1292.5 1864.33,1239.5 1864,1186.5C 1864.4,1168.05 1859.74,1151.05 1850,1135.5C 1836.55,1119.03 1819.05,1111.03 1797.5,1111.5C 1755.11,1115.05 1731.61,1138.05 1727,1180.5C 1726.67,1234.83 1726.33,1289.17 1726,1343.5C 1718.96,1363.94 1704.79,1371.78 1683.5,1367C 1672.62,1362.76 1665.79,1354.93 1663,1343.5C 1662.67,1287.5 1662.33,1231.5 1662,1175.5C 1658.37,1135.37 1636.54,1114.04 1596.5,1111.5C 1553.99,1116.18 1530.15,1139.85 1525,1182.5C 1524.67,1236.17 1524.33,1289.83 1524,1343.5C 1517.51,1363.94 1503.68,1371.77 1482.5,1367C 1470.9,1363.73 1463.73,1356.23 1461,1344.5C 1460.33,1256.5 1460.33,1168.5 1461,1080.5C 1467.98,1061.42 1481.48,1053.92 1501.5,1058C 1516.17,1062.83 1524.01,1072.99 1525,1088.5C 1544.85,1067.83 1569.01,1056.16 1597.5,1053.5 Z"/></g>
<g><path style="opacity:0.982" fill="#000000" d="M 1093.5,1447.5 C 1112.57,1447.41 1123.4,1456.74 1126,1475.5C 1126.67,1599.5 1126.67,1723.5 1126,1847.5C 1123.18,1868.85 1111.01,1878.01 1089.5,1875C 1079.92,1872.42 1073.08,1866.58 1069,1857.5C 1067.78,1848.23 1067.11,1838.89 1067,1829.5C 1027.54,1873.32 979.035,1888.15 921.5,1874C 869.602,1858.44 835.102,1824.94 818,1773.5C 811.833,1749.54 809.833,1725.21 812,1700.5C 819.121,1640.4 850.287,1598.24 905.5,1574C 955.227,1555.84 1001.89,1561.5 1045.5,1591C 1053.04,1597.51 1060.2,1604.34 1067,1611.5C 1067.33,1564.17 1067.67,1516.83 1068,1469.5C 1071.78,1456.55 1080.28,1449.22 1093.5,1447.5 Z M 955.5,1616.5 C 1006.96,1614.19 1042.8,1636.52 1063,1683.5C 1076.59,1727.3 1067.76,1765.8 1036.5,1799C 1001.98,1828.86 963.981,1834.2 922.5,1815C 888.304,1793.3 870.971,1761.96 870.5,1721C 870.498,1689.36 881.498,1662.36 903.5,1640C 918.64,1627.23 935.973,1619.4 955.5,1616.5 Z"/></g>
<g><path style="opacity:0.985" fill="#000000" d="M 388.5,1464.5 C 401.429,1463.38 411.596,1468.05 419,1478.5C 420.927,1481.95 422.261,1485.61 423,1489.5C 423.667,1609.83 423.667,1730.17 423,1850.5C 417.187,1871.28 403.687,1879.11 382.5,1874C 372.726,1869.96 366.559,1862.79 364,1852.5C 363.333,1730.83 363.333,1609.17 364,1487.5C 367.861,1475.14 376.028,1467.47 388.5,1464.5 Z"/></g>
<g><path style="opacity:0.983" fill="#000000" d="M 639.5,1563.5 C 674.659,1560.95 705.993,1570.45 733.5,1592C 757.565,1615.65 770.065,1644.48 771,1678.5C 771.667,1735.83 771.667,1793.17 771,1850.5C 768.106,1866.73 758.439,1875.06 742,1875.5C 726.873,1875.37 717.206,1868.04 713,1853.5C 712.667,1797.83 712.333,1742.17 712,1686.5C 707.351,1641.68 682.518,1618.35 637.5,1616.5C 591.56,1618.71 564.394,1642.37 556,1687.5C 555.979,1743.54 555.313,1799.54 554,1855.5C 549.418,1868.79 540.084,1875.46 526,1875.5C 510.873,1875.37 501.206,1868.04 497,1853.5C 496.333,1765.5 496.333,1677.5 497,1589.5C 504.716,1569.4 518.883,1562.9 539.5,1570C 552.045,1577.93 557.545,1589.43 556,1604.5C 578.203,1579.48 606.036,1565.82 639.5,1563.5 Z"/></g>
<g><path style="opacity:0.983" fill="#000000" d="M 1320.5,1563.5 C 1380.81,1560.92 1429.31,1583.25 1466,1630.5C 1495.5,1675.69 1501.84,1724.03 1485,1775.5C 1465.26,1824.57 1430.09,1857.07 1379.5,1873C 1323.67,1887.76 1272.67,1878.09 1226.5,1844C 1184.87,1808.15 1166.04,1762.65 1170,1707.5C 1177.22,1647.31 1208.05,1604.14 1262.5,1578C 1281.18,1570 1300.51,1565.16 1320.5,1563.5 Z M 1323.5,1615.5 C 1380.81,1616.32 1416.97,1644.32 1432,1699.5C 1439.51,1741.31 1427.67,1776.48 1396.5,1805C 1357.83,1832.33 1317.83,1834.33 1276.5,1811C 1241.13,1785.27 1225.63,1750.44 1230,1706.5C 1239.42,1653.58 1270.59,1623.24 1323.5,1615.5 Z"/></g>
<g><path style="opacity:0.981" fill="#000000" d="M 1679.5,1563.5 C 1713.56,1561.17 1744.22,1570.01 1771.5,1590C 1795.51,1612.19 1808.67,1639.69 1811,1672.5C 1811.67,1732.83 1811.67,1793.17 1811,1853.5C 1804.22,1872.31 1791.05,1879.14 1771.5,1874C 1760.67,1869.85 1754.51,1862.02 1753,1850.5C 1752.67,1794.5 1752.33,1738.5 1752,1682.5C 1746.16,1639.56 1721.49,1617.56 1678,1616.5C 1642.33,1617.23 1617,1633.56 1602,1665.5C 1598.9,1673.57 1596.9,1681.9 1596,1690.5C 1595.67,1744.83 1595.33,1799.17 1595,1853.5C 1592.57,1864.87 1585.73,1872.03 1574.5,1875C 1558.57,1877.95 1546.73,1872.45 1539,1858.5C 1538.08,1855.9 1537.41,1853.23 1537,1850.5C 1536.33,1764.5 1536.33,1678.5 1537,1592.5C 1539.89,1576.27 1549.56,1567.94 1566,1567.5C 1578.24,1567.41 1587.24,1572.74 1593,1583.5C 1594.99,1590.34 1595.99,1597.34 1596,1604.5C 1618.27,1579.45 1646.11,1565.78 1679.5,1563.5 Z"/></g>
<g><path style="opacity:0.982" fill="#000000" d="M 1989.5,1563.5 C 2065.24,1561.93 2115.07,1596.93 2139,1668.5C 2144.15,1686.5 2146.15,1704.83 2145,1723.5C 2141.83,1735.01 2134.33,1741.85 2122.5,1744C 2051.83,1744.17 1981.16,1744.67 1910.5,1745.5C 1918,1784.49 1940.33,1810.66 1977.5,1824C 2021.5,1834.42 2059.83,1824.09 2092.5,1793C 2106.18,1786.88 2118.01,1789.38 2128,1800.5C 2133.94,1810.18 2133.94,1819.85 2128,1829.5C 2095.14,1863.75 2054.8,1880.42 2007,1879.5C 1939.87,1878.29 1891.87,1847.63 1863,1787.5C 1846.06,1742.7 1846.4,1698.03 1864,1653.5C 1889.27,1600.4 1931.1,1570.4 1989.5,1563.5 Z M 1987.5,1614.5 C 2031.65,1611.15 2062.15,1629.81 2079,1670.5C 2082.05,1679.55 2084.55,1688.72 2086.5,1698C 2027.83,1698.5 1969.17,1698.67 1910.5,1698.5C 1915.49,1665.97 1931.82,1641.14 1959.5,1624C 1968.58,1619.7 1977.91,1616.53 1987.5,1614.5 Z"/></g>
<g><path style="opacity:0.981" fill="#000000" d="M 2278.5,1564.5 C 2316.87,1564.59 2352.87,1573.76 2386.5,1592C 2401.87,1606.06 2402.2,1620.39 2387.5,1635C 2380.34,1639.12 2372.68,1640.45 2364.5,1639C 2356.26,1635.88 2348.26,1632.21 2340.5,1628C 2316.9,1616.96 2292.24,1613.3 2266.5,1617C 2251.95,1619.57 2241.45,1627.41 2235,1640.5C 2231.14,1653.27 2234.64,1663.43 2245.5,1671C 2252.94,1676.05 2260.94,1680.05 2269.5,1683C 2290.74,1689.98 2312.07,1696.64 2333.5,1703C 2354.81,1709.73 2373.31,1720.9 2389,1736.5C 2402.59,1753.83 2407.92,1773.5 2405,1795.5C 2398.62,1834.56 2376.45,1860.06 2338.5,1872C 2279.55,1885.41 2224.89,1875.41 2174.5,1842C 2162.48,1832.42 2159.65,1820.58 2166,1806.5C 2175.61,1794.23 2187.78,1791.07 2202.5,1797C 2234.44,1820.2 2270.11,1830.2 2309.5,1827C 2325.48,1824.78 2337.65,1816.95 2346,1803.5C 2352.22,1788.61 2349.06,1776.11 2336.5,1766C 2329.06,1760.95 2321.06,1756.95 2312.5,1754C 2288.41,1746.98 2264.41,1739.64 2240.5,1732C 2221.95,1725.48 2205.79,1715.32 2192,1701.5C 2177.51,1682.08 2172.85,1660.42 2178,1636.5C 2185.31,1608.37 2202.15,1588.2 2228.5,1576C 2244.65,1569.29 2261.32,1565.46 2278.5,1564.5 Z"/></g>
<g><path style="opacity:0.983" fill="#000000" d="M 2692.5,1565.5 C 2719.9,1564.73 2746.23,1569.57 2771.5,1580C 2810.55,1600.88 2830.72,1633.71 2832,1678.5C 2832.67,1736.5 2832.67,1794.5 2832,1852.5C 2828.73,1867.48 2819.39,1875.14 2804,1875.5C 2783.28,1873.77 2773.61,1862.43 2775,1841.5C 2741.19,1871.5 2701.69,1883.67 2656.5,1878C 2620.51,1874.76 2591.68,1858.93 2570,1830.5C 2556.83,1807.68 2553.17,1783.34 2559,1757.5C 2567.16,1728 2585.33,1707.17 2613.5,1695C 2633.66,1686.64 2654.66,1681.97 2676.5,1681C 2709.97,1679.41 2742.97,1682.58 2775.5,1690.5C 2775.36,1651.54 2756.36,1628.04 2718.5,1620C 2682.76,1615.12 2648.43,1620.12 2615.5,1635C 2595.93,1637.75 2584.6,1629.42 2581.5,1610C 2582.45,1600.06 2587.11,1592.39 2595.5,1587C 2626.6,1573.64 2658.93,1566.47 2692.5,1565.5 Z M 2681.5,1726.5 C 2713.61,1725.29 2745.11,1728.95 2776,1737.5C 2780.87,1784.29 2760.7,1814.13 2715.5,1827C 2692.48,1833.59 2669.81,1832.59 2647.5,1824C 2620.91,1812.15 2611.24,1792.15 2618.5,1764C 2624.52,1749.64 2634.86,1739.64 2649.5,1734C 2660.05,1730.4 2670.71,1727.9 2681.5,1726.5 Z"/></g>
<g><path style="opacity:0.981" fill="#000000" d="M 2476.5,1567.5 C 2495.34,1564.87 2507.5,1572.54 2513,1590.5C 2513.67,1677.83 2513.67,1765.17 2513,1852.5C 2507.65,1870.77 2495.49,1878.27 2476.5,1875C 2464.92,1871.75 2457.75,1864.25 2455,1852.5C 2454.33,1765.17 2454.33,1677.83 2455,1590.5C 2457.94,1578.73 2465.1,1571.07 2476.5,1567.5 Z"/></g>
<g><path style="opacity:0.953" fill="#000000" d="M 190.5,2183.5 C 197.532,2183.17 204.532,2183.5 211.5,2184.5C 206.176,2202.8 201.343,2221.13 197,2239.5C 214.057,2225.19 232.557,2223.02 252.5,2233C 259.89,2238.26 264.39,2245.43 266,2254.5C 266.788,2261.56 266.455,2268.56 265,2275.5C 259.333,2297.17 253.667,2318.83 248,2340.5C 241.115,2342.44 233.948,2343.11 226.5,2342.5C 232.018,2319.77 237.852,2297.11 244,2274.5C 247.484,2257.11 240.484,2247.44 223,2245.5C 203.797,2248.7 191.464,2259.7 186,2278.5C 180.182,2299.77 174.682,2321.11 169.5,2342.5C 162.159,2342.67 154.826,2342.5 147.5,2342C 161.757,2289.14 176.09,2236.31 190.5,2183.5 Z"/></g>
<g><path style="opacity:0.952" fill="#000000" d="M 904.5,2183.5 C 911.532,2183.17 918.532,2183.5 925.5,2184.5C 911.184,2237.1 897.184,2289.77 883.5,2342.5C 876.159,2342.67 868.826,2342.5 861.5,2342C 876.065,2289.24 890.398,2236.41 904.5,2183.5 Z"/></g>
<g><path style="opacity:0.953" fill="#000000" d="M 1044.5,2183.5 C 1051.5,2183.5 1058.5,2183.5 1065.5,2183.5C 1051.99,2236.53 1038.32,2289.53 1024.5,2342.5C 1017.14,2342.83 1009.8,2342.5 1002.5,2341.5C 1003.68,2338.16 1004.51,2334.82 1005,2331.5C 985.936,2347.44 965.436,2349.61 943.5,2338C 930.17,2327.73 923.504,2314.06 923.5,2297C 924.616,2266.6 938.616,2244.6 965.5,2231C 982.892,2224.06 999.558,2225.39 1015.5,2235C 1020.08,2238.91 1023.92,2243.41 1027,2248.5C 1033.61,2227.08 1039.44,2205.42 1044.5,2183.5 Z M 984.5,2245.5 C 1008.31,2245.81 1020.14,2257.81 1020,2281.5C 1016.18,2302.99 1004.01,2317.49 983.5,2325C 955.834,2328 943.334,2315.5 946,2287.5C 949.744,2264.93 962.577,2250.93 984.5,2245.5 Z"/></g>
<g><path style="opacity:0.954" fill="#000000" d="M 1938.5,2183.5 C 1945.5,2183.5 1952.5,2183.5 1959.5,2183.5C 1954.67,2202.15 1950.17,2220.82 1946,2239.5C 1963.57,2224.57 1982.4,2222.74 2002.5,2234C 2014.12,2244.83 2017.95,2257.99 2014,2273.5C 2008.06,2296.49 2002.23,2319.49 1996.5,2342.5C 1989.16,2342.67 1981.83,2342.5 1974.5,2342C 1981.77,2317.24 1988.11,2292.24 1993.5,2267C 1993.01,2253.01 1985.67,2245.84 1971.5,2245.5C 1956.05,2247.48 1944.88,2255.48 1938,2269.5C 1930.66,2293.35 1923.83,2317.35 1917.5,2341.5C 1910.53,2342.5 1903.53,2342.83 1896.5,2342.5C 1910.66,2289.54 1924.66,2236.54 1938.5,2183.5 Z"/></g>
<g><path style="opacity:0.953" fill="#000000" d="M 2405.5,2183.5 C 2412.5,2183.5 2419.5,2183.5 2426.5,2183.5C 2412.83,2235.86 2398.99,2288.19 2385,2340.5C 2378.11,2342.44 2370.95,2343.11 2363.5,2342.5C 2364.36,2338.42 2365.19,2334.42 2366,2330.5C 2346.37,2347.78 2325.21,2349.95 2302.5,2337C 2289.96,2326.25 2283.96,2312.58 2284.5,2296C 2285.03,2268.92 2296.7,2248.25 2319.5,2234C 2339.32,2223.44 2358.65,2224.11 2377.5,2236C 2381.75,2239.58 2385.25,2243.75 2388,2248.5C 2394.3,2226.96 2400.14,2205.29 2405.5,2183.5 Z M 2345.5,2245.5 C 2363.25,2244.79 2374.75,2252.79 2380,2269.5C 2381.71,2291.12 2373.54,2307.96 2355.5,2320C 2342.92,2328.11 2330.26,2328.44 2317.5,2321C 2309.71,2314.09 2306.05,2305.42 2306.5,2295C 2307.25,2268.6 2320.25,2252.1 2345.5,2245.5 Z"/></g>
<g><path style="opacity:0.96" fill="#000000" d="M 1160.5,2187.5 C 1168.17,2187.5 1175.83,2187.5 1183.5,2187.5C 1181.84,2194.83 1180.17,2202.16 1178.5,2209.5C 1170.47,2209.83 1162.47,2209.5 1154.5,2208.5C 1156.51,2201.47 1158.51,2194.47 1160.5,2187.5 Z"/></g>
<g><path style="opacity:0.964" fill="#000000" d="M 107.5,2196.5 C 114.5,2196.5 121.5,2196.5 128.5,2196.5C 125.991,2207.54 123.325,2218.54 120.5,2229.5C 131.853,2229.17 143.186,2229.5 154.5,2230.5C 152.751,2236 151.085,2241.5 149.5,2247C 138.167,2247.33 126.833,2247.67 115.5,2248C 108.955,2270.68 102.955,2293.51 97.5,2316.5C 98.2938,2321.13 100.961,2323.96 105.5,2325C 113.779,2325.81 121.612,2324.31 129,2320.5C 127.99,2327.55 126.49,2334.55 124.5,2341.5C 115.036,2344.31 105.37,2345.14 95.5,2344C 79.4071,2338.99 73.2404,2328.16 77,2311.5C 82.6117,2290.17 88.1117,2268.84 93.5,2247.5C 88.8333,2247.5 84.1667,2247.5 79.5,2247.5C 80.6266,2241.45 81.9599,2235.45 83.5,2229.5C 88.8333,2229.5 94.1667,2229.5 99.5,2229.5C 102.01,2218.46 104.677,2207.46 107.5,2196.5 Z"/></g>
<g><path style="opacity:0.953" fill="#000000" d="M 344.5,2226.5 C 380.286,2226.79 396.786,2244.79 394,2280.5C 393.301,2284.97 392.134,2289.3 390.5,2293.5C 362.175,2294.5 333.841,2294.83 305.5,2294.5C 305.591,2314.76 315.758,2325.42 336,2326.5C 348.576,2326.04 359.576,2321.71 369,2313.5C 372.654,2315.82 375.654,2318.82 378,2322.5C 379.751,2324.21 380.418,2326.21 380,2328.5C 355.817,2348.08 329.983,2350.58 302.5,2336C 287.588,2323.22 281.754,2307.06 285,2287.5C 291.283,2253.72 311.117,2233.39 344.5,2226.5 Z M 341.5,2245.5 C 364.745,2243.08 375.411,2253.41 373.5,2276.5C 352.167,2276.5 330.833,2276.5 309.5,2276.5C 314.959,2260.71 325.626,2250.37 341.5,2245.5 Z"/></g>
<g><path style="opacity:0.953" fill="#000000" d="M 708.5,2226.5 C 749.177,2226.68 768.344,2247.01 766,2287.5C 759.378,2319.79 739.878,2338.96 707.5,2345C 687.659,2347.5 671.159,2341.33 658,2326.5C 641.969,2295.98 646.136,2268.48 670.5,2244C 681.62,2234.6 694.287,2228.77 708.5,2226.5 Z M 709.5,2245.5 C 729.082,2244.61 740.915,2253.61 745,2272.5C 745.495,2303.19 730.662,2321.19 700.5,2326.5C 676.787,2323.12 666.621,2309.45 670,2285.5C 675.388,2264.28 688.554,2250.95 709.5,2245.5 Z"/></g>
<g><path style="opacity:0.956" fill="#000000" d="M 1250.5,2226.5 C 1281.77,2226.26 1295.6,2241.6 1292,2272.5C 1286.16,2295.85 1280.33,2319.19 1274.5,2342.5C 1267.14,2342.83 1259.8,2342.5 1252.5,2341.5C 1259.93,2316.76 1266.27,2291.76 1271.5,2266.5C 1270.74,2252.76 1263.41,2245.76 1249.5,2245.5C 1231.41,2248.75 1219.24,2259.09 1213,2276.5C 1207.32,2298.22 1201.49,2319.88 1195.5,2341.5C 1188.53,2342.5 1181.53,2342.83 1174.5,2342.5C 1184.02,2305.1 1193.85,2267.77 1204,2230.5C 1211.11,2229.19 1218.28,2229.19 1225.5,2230.5C 1224.19,2233.41 1223.69,2236.41 1224,2239.5C 1231.66,2232.59 1240.5,2228.25 1250.5,2226.5 Z"/></g>
<g><path style="opacity:0.955" fill="#000000" d="M 1551.5,2226.5 C 1593.17,2227 1612.34,2248 1609,2289.5C 1601.49,2320.68 1581.99,2339.18 1550.5,2345C 1519.41,2347.88 1499.91,2334.38 1492,2304.5C 1489.28,2270.09 1503.45,2245.59 1534.5,2231C 1540.21,2229.17 1545.88,2227.67 1551.5,2226.5 Z M 1552.5,2245.5 C 1578.86,2245.86 1590.69,2259.19 1588,2285.5C 1582.69,2308.98 1568.19,2322.65 1544.5,2326.5C 1521.22,2323.99 1510.72,2310.99 1513,2287.5C 1517.5,2265.17 1530.67,2251.17 1552.5,2245.5 Z"/></g>
<g><path style="opacity:0.956" fill="#000000" d="M 2223.5,2226.5 C 2255.26,2226.42 2269.09,2242.09 2265,2273.5C 2259.01,2296.48 2253.17,2319.48 2247.5,2342.5C 2240.16,2342.67 2232.83,2342.5 2225.5,2342C 2233.06,2317.32 2239.39,2292.32 2244.5,2267C 2244.01,2253.01 2236.67,2245.84 2222.5,2245.5C 2202.82,2249.34 2190.32,2261.01 2185,2280.5C 2179.51,2300.79 2174.18,2321.12 2169,2341.5C 2161.89,2342.81 2154.72,2342.81 2147.5,2341.5C 2157.33,2304.84 2167.17,2268.17 2177,2231.5C 2183.89,2229.56 2191.05,2228.89 2198.5,2229.5C 2197.66,2232.83 2197.16,2236.17 2197,2239.5C 2204.66,2232.59 2213.5,2228.25 2223.5,2226.5 Z"/></g>
<g><path style="opacity:0.956" fill="#000000" d="M 855.5,2227.5 C 860.875,2227.17 866.208,2227.51 871.5,2228.5C 869.357,2235.07 867.523,2241.74 866,2248.5C 839.899,2250.27 821.899,2263.27 812,2287.5C 806.749,2305.67 801.583,2323.84 796.5,2342C 789.476,2342.83 782.476,2342.66 775.5,2341.5C 785.332,2304.84 795.165,2268.17 805,2231.5C 811.885,2229.56 819.052,2228.89 826.5,2229.5C 824.998,2235.49 823.831,2241.49 823,2247.5C 831.794,2237.36 842.627,2230.69 855.5,2227.5 Z"/></g>
<g><path style="opacity:0.957" fill="#000000" d="M 1827.5,2227.5 C 1832.83,2227.5 1838.17,2227.5 1843.5,2227.5C 1842.15,2234.91 1840.48,2242.24 1838.5,2249.5C 1812.96,2250.52 1795.13,2262.85 1785,2286.5C 1779.21,2305.01 1774.04,2323.68 1769.5,2342.5C 1762.5,2342.5 1755.5,2342.5 1748.5,2342.5C 1758.32,2304.88 1767.99,2267.21 1777.5,2229.5C 1784.86,2229.17 1792.2,2229.5 1799.5,2230.5C 1797.35,2236.43 1795.85,2242.43 1795,2248.5C 1803.71,2238.07 1814.54,2231.07 1827.5,2227.5 Z"/></g>
<g><path style="opacity:0.953" fill="#000000" d="M 2079.5,2227.5 C 2096.01,2225.42 2111.35,2228.58 2125.5,2237C 2135.26,2246.86 2138.76,2258.7 2136,2272.5C 2130.16,2295.85 2124.33,2319.18 2118.5,2342.5C 2111.16,2342.67 2103.83,2342.5 2096.5,2342C 2098.07,2339.24 2098.41,2336.41 2097.5,2333.5C 2078.2,2347.74 2058.2,2348.91 2037.5,2337C 2026.77,2326.02 2023.94,2313.19 2029,2298.5C 2035.82,2283.69 2047.32,2274.86 2063.5,2272C 2080.04,2269.89 2096.38,2271.06 2112.5,2275.5C 2113.44,2275.39 2114.28,2275.06 2115,2274.5C 2118.1,2264.23 2115.27,2256.06 2106.5,2250C 2089.59,2244.84 2073.09,2246.01 2057,2253.5C 2055.31,2247.56 2053.81,2241.56 2052.5,2235.5C 2061.17,2231.42 2070.17,2228.75 2079.5,2227.5 Z M 2072.5,2287.5 C 2085.49,2287.04 2098.16,2288.71 2110.5,2292.5C 2103.05,2318.22 2086.05,2329.39 2059.5,2326C 2049.13,2321.26 2045.97,2313.43 2050,2302.5C 2054.99,2293.67 2062.49,2288.67 2072.5,2287.5 Z"/></g>
<g><path style="opacity:0.956" fill="#000000" d="M 557.5,2228.5 C 563.5,2228.5 569.5,2228.5 575.5,2228.5C 577.001,2255.85 578.835,2283.18 581,2310.5C 597,2283.83 613,2257.17 629,2230.5C 636.754,2229.35 644.587,2229.19 652.5,2230C 629.208,2267.42 606.041,2304.92 583,2342.5C 576.59,2343.48 570.09,2343.81 563.5,2343.5C 561.999,2316.82 560.165,2290.15 558,2263.5C 541.833,2289.83 525.667,2316.17 509.5,2342.5C 503.202,2343.5 496.868,2343.83 490.5,2343.5C 487.995,2305.77 484.995,2268.11 481.5,2230.5C 488.803,2229.5 496.137,2229.17 503.5,2229.5C 504.913,2256.2 506.746,2282.86 509,2309.5C 525.42,2282.6 541.587,2255.6 557.5,2228.5 Z"/></g>
<g><path style="opacity:0.955" fill="#000000" d="M 1150.5,2229.5 C 1157.53,2229.17 1164.53,2229.5 1171.5,2230.5C 1160.88,2267.68 1150.88,2305.02 1141.5,2342.5C 1134.5,2342.5 1127.5,2342.5 1120.5,2342.5C 1130.03,2304.69 1140.03,2267.03 1150.5,2229.5 Z"/></g>
<g><path style="opacity:0.952" fill="#000000" d="M 1381.5,2230.5 C 1384.98,2229.83 1388.65,2229.5 1392.5,2229.5C 1396.6,2229.54 1400.43,2230.21 1404,2231.5C 1408.4,2259.25 1413.24,2286.92 1418.5,2314.5C 1436.96,2286.42 1455.29,2258.25 1473.5,2230C 1481.52,2229.17 1489.52,2229.34 1497.5,2230.5C 1470.25,2272.01 1442.75,2313.34 1415,2354.5C 1397.46,2378 1375.63,2383.17 1349.5,2370C 1348.64,2369.31 1347.98,2368.48 1347.5,2367.5C 1351.14,2362.03 1354.97,2356.69 1359,2351.5C 1370.32,2360.79 1381.49,2360.62 1392.5,2351C 1395.33,2347.5 1398.17,2344 1401,2340.5C 1395.45,2303.58 1388.95,2266.92 1381.5,2230.5 Z"/></g>
<g><path style="opacity:0.956" fill="#000000" d="M 1646.5,2229.5 C 1653.84,2229.33 1661.17,2229.5 1668.5,2230C 1660.91,2254.68 1654.58,2279.68 1649.5,2305C 1650.67,2318.17 1657.84,2325.34 1671,2326.5C 1690.2,2323.3 1702.53,2312.3 1708,2293.5C 1713.68,2272.45 1719.51,2251.45 1725.5,2230.5C 1732.47,2229.5 1739.47,2229.17 1746.5,2229.5C 1736.83,2266.52 1726.99,2303.52 1717,2340.5C 1710.11,2342.44 1702.95,2343.11 1695.5,2342.5C 1696.34,2339.17 1696.84,2335.83 1697,2332.5C 1679.42,2347.29 1660.58,2349.13 1640.5,2338C 1629.19,2327.07 1625.36,2313.91 1629,2298.5C 1635,2275.52 1640.83,2252.52 1646.5,2229.5 Z"/></g>
</svg>
