<?xml version="1.0" encoding="UTF-8"?>
<!DOCTYPE svg PUBLIC "-//W3C//DTD SVG 1.1//EN" "http://www.w3.org/Graphics/SVG/1.1/DTD/svg11.dtd">
<svg xmlns="http://www.w3.org/2000/svg" version="1.1" width="1200px" height="1299px" style="shape-rendering:geometricPrecision; text-rendering:geometricPrecision; image-rendering:optimizeQuality; fill-rule:evenodd; clip-rule:evenodd" xmlns:xlink="http://www.w3.org/1999/xlink">
<g><path style="opacity:0.833" fill="#101010" d="M 898.5,-0.5 C 913.167,-0.5 927.833,-0.5 942.5,-0.5C 942.833,10.1667 943.167,20.8333 943.5,31.5C 928.5,31.5 913.5,31.5 898.5,31.5C 898.5,20.8333 898.5,10.1667 898.5,-0.5 Z"/></g>
<g><path style="opacity:0.981" fill="#121212" d="M 584.5,4.5 C 609.048,3.42431 633.048,6.59098 656.5,14C 657.489,26.42 657.822,38.92 657.5,51.5C 645.638,47.0753 633.638,42.9087 621.5,39C 610.535,35.4152 599.535,35.0819 588.5,38C 579.094,42.9553 573.761,50.7886 572.5,61.5C 598.193,66.5894 622.86,74.7561 646.5,86C 661.014,99.5372 665.847,116.037 661,135.5C 655.716,153.453 644.216,165.619 626.5,172C 604.397,178.657 582.064,179.324 559.5,174C 550.254,172.521 541.254,170.354 532.5,167.5C 529.834,153.512 528.168,139.512 527.5,125.5C 547.524,136.008 568.69,143.008 591,146.5C 606.178,146.311 615.845,138.977 620,124.5C 620.72,122.888 620.554,121.388 619.5,120C 604.113,115.112 588.613,110.612 573,106.5C 558.94,102.42 546.94,95.0867 537,84.5C 522.641,47.5221 533.808,22.0221 570.5,8C 575.295,6.80115 579.962,5.63448 584.5,4.5 Z"/></g>
<g><path style="opacity:0.981" fill="#121212" d="M -0.5,154.5 C -0.5,151.167 -0.5,147.833 -0.5,144.5C 11.8688,144.784 24.2021,144.284 36.5,143C 42.0352,142.155 47.2019,140.322 52,137.5C 55.1461,128.771 57.1461,119.771 58,110.5C 59.059,86.0896 58.2257,61.7562 55.5,37.5C 43.5,37.5 31.5,37.5 19.5,37.5C 19.9507,27.1713 20.284,16.838 20.5,6.5C 47.5,6.5 74.5,6.5 101.5,6.5C 100.92,12.9738 100.587,19.4738 100.5,26C 101.441,49.4998 101.941,72.9998 102,96.5C 102.03,115.236 99.3631,133.569 94,151.5C 87.7637,162.373 78.597,169.54 66.5,173C 57.9672,175.2 49.3005,176.533 40.5,177C 27.8377,177.5 15.1711,177.667 2.5,177.5C 1.99868,169.631 0.998682,161.964 -0.5,154.5 Z"/></g>
<g><path style="opacity:0.982" fill="#121212" d="M 1117.5,11.5 C 1129.84,11.3335 1142.17,11.5001 1154.5,12C 1155.27,23.4435 1155.94,34.9435 1156.5,46.5C 1168.83,46.9918 1181.16,47.3251 1193.5,47.5C 1193.34,57.1907 1193.68,66.8573 1194.5,76.5C 1181.82,76.4862 1169.16,76.1529 1156.5,75.5C 1155.63,91.8263 1155.46,108.16 1156,124.5C 1156.79,131.535 1158.79,138.202 1162,144.5C 1162.75,145.126 1163.58,145.626 1164.5,146C 1175.53,147.036 1186.53,148.203 1197.5,149.5C 1198.74,164.561 1192.07,173.728 1177.5,177C 1169.79,177.706 1162.12,177.372 1154.5,176C 1143.15,173.163 1131.82,170.33 1120.5,167.5C 1118.34,140.882 1117.17,114.216 1117,87.5C 1110.31,78.3047 1103.81,68.9714 1097.5,59.5C 1103.52,52.6497 1110.02,46.3164 1117,40.5C 1117.5,30.8391 1117.67,21.1724 1117.5,11.5 Z"/></g>
<g><path style="opacity:0.978" fill="#121212" d="M 735.5,43.5 C 752.387,42.3741 767.887,46.3741 782,55.5C 783.935,66.6147 785.101,77.6147 785.5,88.5C 772.874,82.9027 759.874,78.4027 746.5,75C 732.678,71.9949 722.845,76.8282 717,89.5C 710.433,105.523 711.1,121.19 719,136.5C 725.664,145.417 734.497,149.25 745.5,148C 759.354,143.156 773.354,139.156 787.5,136C 784.879,147.436 782.379,158.936 780,170.5C 772.798,174.789 764.964,177.289 756.5,178C 728.8,181.544 704.966,173.711 685,154.5C 671.572,136.972 667.239,117.305 672,95.5C 677.667,72.8264 691.501,57.3264 713.5,49C 720.823,46.5751 728.157,44.7418 735.5,43.5 Z"/></g>
<g><path style="opacity:0.981" fill="#121212" d="M 168.5,44.5 C 183.897,43.3194 198.897,45.1528 213.5,50C 231.728,58.2559 239.895,72.4226 238,92.5C 238.5,119.831 238.667,147.165 238.5,174.5C 223.671,173.197 208.838,171.864 194,170.5C 181.564,173.235 169.064,175.568 156.5,177.5C 137.114,175.954 125.281,165.621 121,146.5C 116.895,122.174 126.395,106.341 149.5,99C 166.784,94.8437 184.117,91.0104 201.5,87.5C 193.566,79.5383 183.9,75.3717 172.5,75C 158.42,75.0526 144.42,76.2193 130.5,78.5C 130.834,69.1613 131.334,59.828 132,50.5C 132.308,49.6919 132.808,49.0253 133.5,48.5C 145.299,47.2219 156.966,45.8885 168.5,44.5 Z M 196.5,115.5 C 197.748,116.334 198.415,117.667 198.5,119.5C 197.391,128.805 196.725,138.138 196.5,147.5C 185.139,147.969 173.805,147.969 162.5,147.5C 163.937,138.229 164.937,128.896 165.5,119.5C 176.022,118.56 186.356,117.227 196.5,115.5 Z"/></g>
<g><path style="opacity:0.981" fill="#121212" d="M 431.5,44.5 C 441.839,44.3335 452.172,44.5002 462.5,45C 478.799,46.3994 492.299,53.2328 503,65.5C 504.984,73.7186 506.317,82.0519 507,90.5C 507.667,119.167 507.667,147.833 507,176.5C 492,174.167 477,171.833 462,169.5C 442.02,180.17 422.187,180.004 402.5,169C 394.731,162.709 390.565,154.542 390,144.5C 386.99,126.026 393.49,112.193 409.5,103C 414.678,100.607 420.012,98.607 425.5,97C 440.505,93.8889 455.505,90.8889 470.5,88C 458.928,76.2732 444.928,71.9399 428.5,75C 417.844,76.3321 407.177,77.4988 396.5,78.5C 398.44,68.0136 401.773,58.0136 406.5,48.5C 414.946,47.0736 423.279,45.7403 431.5,44.5 Z M 463.5,115.5 C 464.5,115.5 465.5,115.5 466.5,115.5C 465.833,126.5 465.167,137.5 464.5,148.5C 453.507,147.992 442.507,147.658 431.5,147.5C 431.916,138.752 432.916,130.086 434.5,121.5C 444.211,119.164 453.877,117.164 463.5,115.5 Z"/></g>
<g><path style="opacity:0.978" fill="#121212" d="M 802.5,44.5 C 818.254,48.0831 833.92,52.0831 849.5,56.5C 861.333,51.9124 873.333,47.9124 885.5,44.5C 885.752,57.8571 886.418,71.1905 887.5,84.5C 872.85,85.4516 858.183,86.1183 843.5,86.5C 842.431,116.149 841.764,145.815 841.5,175.5C 828.167,175.5 814.833,175.5 801.5,175.5C 801.247,131.825 801.58,88.1579 802.5,44.5 Z"/></g>
<g><path style="opacity:0.982" fill="#121212" d="M 252.5,44.5 C 266.431,46.6182 280.098,49.6182 293.5,53.5C 302.628,76.7166 311.461,100.05 320,123.5C 328.543,98.3714 336.377,73.038 343.5,47.5C 357.249,47.4028 370.916,47.4028 384.5,47.5C 370.48,91.0607 354.98,134.061 338,176.5C 337.481,177.516 336.647,178.182 335.5,178.5C 321.999,176.832 308.832,173.832 296,169.5C 278.618,128.855 264.118,87.1884 252.5,44.5 Z"/></g>
<g><path style="opacity:0.985" fill="#121212" d="M 1052.5,45.5 C 1069.45,48.2801 1081.29,57.6135 1088,73.5C 1096.08,99.1638 1095.08,124.497 1085,149.5C 1076.13,166.532 1061.96,175.366 1042.5,176C 1031.48,176.713 1020.48,176.547 1009.5,175.5C 1009.5,190.5 1009.5,205.5 1009.5,220.5C 996.167,220.5 982.833,220.5 969.5,220.5C 969.333,162.499 969.5,104.499 970,46.5C 982.094,49.636 994.427,50.9693 1007,50.5C 1022.52,50.766 1037.69,49.0993 1052.5,45.5 Z M 1013.5,77.5 C 1024.84,77.3335 1036.17,77.5001 1047.5,78C 1049.48,90.2128 1050.82,102.546 1051.5,115C 1051.32,121.258 1050.49,127.424 1049,133.5C 1045.99,140.101 1040.83,143.934 1033.5,145C 1025.54,146.494 1017.54,147.661 1009.5,148.5C 1009.59,125.162 1009.92,101.829 1010.5,78.5C 1011.79,78.7373 1012.79,78.404 1013.5,77.5 Z"/></g>
<g><path style="opacity:0.978" fill="#131313" d="M 901.5,47.5 C 914.167,47.5 926.833,47.5 939.5,47.5C 939.5,90.1667 939.5,132.833 939.5,175.5C 926.833,175.5 914.167,175.5 901.5,175.5C 901.5,132.833 901.5,90.1667 901.5,47.5 Z"/></g>
<g><path style="opacity:0.998" fill="#d6ba32" d="M 521.5,254.5 C 699.83,256.023 878.163,256.69 1056.5,256.5C 1028.43,568.442 1000.93,880.442 974,1192.5C 852.595,1227.23 731.095,1261.73 609.5,1296C 596.925,1298.36 584.591,1297.36 572.5,1293C 456.075,1259.23 339.408,1226.39 222.5,1194.5C 192.789,882.012 165.122,569.346 139.5,256.5C 223.164,255.378 306.831,255.378 390.5,256.5C 434.342,256.592 478.008,255.926 521.5,254.5 Z M 697.5,457.5 C 773.5,457.5 849.5,457.5 925.5,457.5C 923.188,493.598 919.855,529.598 915.5,565.5C 851.167,565.5 786.833,565.5 722.5,565.5C 722.5,619.833 722.5,674.167 722.5,728.5C 776.249,723.509 829.916,717.676 883.5,711C 890.845,709.83 898.178,709.663 905.5,710.5C 897.613,807.193 889.447,903.86 881,1000.5C 879.833,1003 878,1004.83 875.5,1006C 796.206,1028.24 716.539,1049.07 636.5,1068.5C 635.351,1033.17 635.351,997.833 636.5,962.5C 695.036,947.949 753.369,932.616 811.5,916.5C 812.318,913.893 812.818,911.226 813,908.5C 814.065,880.151 815.231,851.818 816.5,823.5C 756.227,834.157 695.893,844.49 635.5,854.5C 635.5,722.5 635.5,590.5 635.5,458.5C 656.34,458.831 677.007,458.497 697.5,457.5 Z"/></g>
<g><path style="opacity:0.996" fill="#fed93d" d="M 599.5,338.5 C 723.167,338.5 846.833,338.5 970.5,338.5C 949.545,606.05 926.212,873.383 900.5,1140.5C 839.57,1157.82 778.57,1174.98 717.5,1192C 678.39,1202.78 639.056,1212.61 599.5,1221.5C 598.176,927.167 598.176,632.834 599.5,338.5 Z M 697.5,457.5 C 677.007,458.497 656.34,458.831 635.5,458.5C 635.5,590.5 635.5,722.5 635.5,854.5C 695.893,844.49 756.227,834.157 816.5,823.5C 815.231,851.818 814.065,880.151 813,908.5C 812.818,911.226 812.318,913.893 811.5,916.5C 753.369,932.616 695.036,947.949 636.5,962.5C 635.351,997.833 635.351,1033.17 636.5,1068.5C 716.539,1049.07 796.206,1028.24 875.5,1006C 878,1004.83 879.833,1003 881,1000.5C 889.447,903.86 897.613,807.193 905.5,710.5C 898.178,709.663 890.845,709.83 883.5,711C 829.916,717.676 776.249,723.509 722.5,728.5C 722.5,674.167 722.5,619.833 722.5,565.5C 786.833,565.5 851.167,565.5 915.5,565.5C 919.855,529.598 923.188,493.598 925.5,457.5C 849.5,457.5 773.5,457.5 697.5,457.5 Z"/></g>
<g><path style="opacity:1" fill="#eaeaea" d="M 559.5,534.5 C 558.833,712.5 558.167,890.5 557.5,1068.5C 537.733,1064.14 518.066,1059.31 498.5,1054C 431.639,1034.99 364.639,1016.49 297.5,998.5C 296.749,997.624 296.249,996.624 296,995.5C 292.495,960.895 291.662,926.228 293.5,891.5C 313.933,895.858 334.267,900.692 354.5,906C 393.438,917.147 432.438,927.981 471.5,938.5C 471.278,777.831 471.611,617.165 472.5,456.5C 501.507,457 530.507,457.667 559.5,458.5C 559.5,483.833 559.5,509.167 559.5,534.5 Z"/></g>
<g><path style="opacity:0.762" fill="#e7e2c9" d="M 559.5,534.5 C 559.833,712.835 559.5,891.168 558.5,1069.5C 557.893,1069.38 557.56,1069.04 557.5,1068.5C 558.167,890.5 558.833,712.5 559.5,534.5 Z"/></g>
</svg>
